<svg xmlns="http://www.w3.org/2000/svg" xmlns:xlink="http://www.w3.org/1999/xlink" width="354.021" height="354.021" viewBox="0 0 354.021 295.619"><defs><linearGradient id="a" x1="0.185" y1="0.04" x2="0.866" y2="0.696" gradientUnits="objectBoundingBox"><stop offset="0.358" stop-color="#cbbba0"/><stop offset="0.498" stop-color="#cbb491"/><stop offset="0.763" stop-color="#caa06b"/><stop offset="0.789" stop-color="#ca9e67"/></linearGradient><radialGradient id="b" cx="0.5" cy="0.5" r="0.97" gradientTransform="translate(0.304) scale(0.392 1)" gradientUnits="objectBoundingBox"><stop offset="0" stop-color="#141414"/><stop offset="1"/></radialGradient><linearGradient id="c" y1="0.5" x2="1" y2="0.5" gradientUnits="objectBoundingBox"><stop offset="0" stop-color="#fff"/><stop offset="1" stop-color="#a7a7a7"/></linearGradient><linearGradient id="d" x1="0" y1="0.5" x2="1" y2="0.5" xlink:href="#c"/><linearGradient id="e" x1="0.032" y1="1.033" x2="0.925" y2="0.152" gradientUnits="objectBoundingBox"><stop offset="0" stop-color="#630000"/><stop offset="0.024" stop-color="#710000"/><stop offset="0.096" stop-color="#940000"/><stop offset="0.168" stop-color="#b00000"/><stop offset="0.241" stop-color="#c30000"/><stop offset="0.315" stop-color="#cf0000"/><stop offset="0.389" stop-color="#d30000"/><stop offset="0.689" stop-color="#9a0000"/><stop offset="0.761" stop-color="#8c0000"/><stop offset="0.811" stop-color="#920000"/><stop offset="0.879" stop-color="#a30000"/><stop offset="0.956" stop-color="#c00000"/><stop offset="1" stop-color="#d30000"/></linearGradient><radialGradient id="f" cx="0.488" cy="0.488" fx="0.7813945412635803" fy="0.28554001450538635" r="0.518" gradientTransform="translate(0.034) scale(0.933 1)" gradientUnits="objectBoundingBox"><stop offset="0.403" stop-color="#141414"/><stop offset="0.621"/></radialGradient><radialGradient id="g" cx="0.581" cy="0.456" fx="0.3604738116264343" fy="0.6865550875663757" r="0.345" gradientTransform="matrix(-0.882, -0.274, 0.246, -0.939, 0.981, 1.044)" gradientUnits="objectBoundingBox"><stop offset="0.199" stop-color="#3f3f3f"/><stop offset="0.843"/></radialGradient><radialGradient id="h" cx="0.5" cy="0.5" r="0.5" gradientUnits="objectBoundingBox"><stop offset="0" stop-color="#fff"/><stop offset="0.373" stop-color="#fdfdfd"/><stop offset="0.507" stop-color="#f6f6f6"/><stop offset="0.603" stop-color="#ebebeb"/><stop offset="0.68" stop-color="#dadada"/><stop offset="0.746" stop-color="#c4c4c4"/><stop offset="0.805" stop-color="#a8a8a8"/><stop offset="0.858" stop-color="#888"/><stop offset="0.907" stop-color="#626262"/><stop offset="0.952" stop-color="#373737"/><stop offset="0.993" stop-color="#090909"/><stop offset="1"/></radialGradient><radialGradient id="i" cx="0.5" cy="0.5" r="0.5" xlink:href="#h"/><linearGradient id="j" x1="0.117" y1="-0.159" x2="0.849" y2="1.26" gradientUnits="objectBoundingBox"><stop offset="0" stop-color="#b4691e"/><stop offset="0.083" stop-color="#ce8c31"/><stop offset="0.179" stop-color="#ce8c31"/><stop offset="0.273" stop-color="#deb159"/><stop offset="0.342" stop-color="#fdf09d"/><stop offset="0.406" stop-color="#faf5c1"/><stop offset="0.484" stop-color="#fdf09d"/><stop offset="0.587" stop-color="#deb159"/><stop offset="0.672" stop-color="#ce8c31"/><stop offset="0.772" stop-color="#c27c27"/><stop offset="0.834" stop-color="#cd8425"/><stop offset="0.883" stop-color="#e4a339"/><stop offset="0.931" stop-color="#efb449"/><stop offset="1" stop-color="#b6691e"/></linearGradient><linearGradient id="k" x1="0.906" y1="0.988" x2="0.189" y2="0.272" xlink:href="#j"/><linearGradient id="l" x1="0.898" y1="0.219" x2="-0.044" y2="0.815" xlink:href="#j"/></defs><g transform="translate(-214.26 -199.251)"><path d="M381.87,490.81l-8.64-11.04-12.78-17.54L347,448.77l-9-8.61-25.42-17.73-26.13-18.05-21.74-21.35-9.5-9.5L237.1,350.85l-10.45-21.14-4.13-21.13L223.81,292l4.64-14.16,5.16-13.68,12.13-20.39,12.24-12.23,17.96-11.77,19.87-9.8,22.83-5.96,11.67-2.24,14.53-.32,16,2.56,14.71,5.96,11.87,8,9.7,9.7,8.25,11.23,7.34,11.84,2.06,5.42,7.51-11.19,14.55-14.55,15.11-9.61,20.77-6.77,15.32-1.12h13.93l15.92,3.59,17.04,9.32,11.51,11.51,8.6,14.68,3.16,27.35-1.35,19.37-3.29,14.3-22.11,48.8-16.02,24.6-20.1,20.09L479.95,419.6l-8.55,8.03-12.05,6.85L439.03,448.7l-16.85,14.69-11.59,11.59-8.76,8.76-4.99,5.97-4.26,2.9-5.1.91-4.58-.71Z" fill="url(#a)"/><path d="M389.03,494.87c-5.73,0-6.65-.73-10.07-4.2-.31-.32-.65-.66-1.02-1.03a44.311,44.311,0,0,1-4.45-6.16,181.011,181.011,0,0,0-36.84-41.73,251.991,251.991,0,0,0-31.54-22.96,195.619,195.619,0,0,1-27.52-20.23c-.87-.76-1.88-1.62-2.99-2.57-12.91-11.04-39.77-34.03-50.25-68.02-12.15-39.4,8.47-84.52,43.02-106.65,27.03-17.31,65.84-29.06,98.91-17.37,29.01,10.26,43.96,37.69,48.8,48.28,4.33-8.15,16.34-26.15,41.56-35.88,32.48-12.52,59.35-2.37,60.48-1.93.81.3,22.34,6.18,33.42,25.36,10.52,18.22,9.77,38.66,9.69,40.87.46,3.3,3.23,37.06-28.37,83.77a172.246,172.246,0,0,1-17.6,26.19,149.783,149.783,0,0,1-17.52,18.38c-3.19,2.93-6.54,7.32-13.21,12.36-10.8,8.16-11.89,9.39-19.27,13.92A267.158,267.158,0,0,0,440,451.68c-21.49,16.41-39.92,36.66-41.51,38.43A11.135,11.135,0,0,1,389.03,494.87ZM342.19,204.01c-25.75,0-52.7,12.32-72.78,24.26-24.1,14.33-52.84,60.94-41.24,98.53,10.15,32.89,36.41,55.36,49.03,66.16,1.12.96,2.14,1.83,3.02,2.6a191.446,191.446,0,0,0,27.03,19.86,255.169,255.169,0,0,1,31.97,23.28c21.44,18.06,23.91,23.42,29.56,31.99,1.72,2.6,11.12,15.26,11.99,16.13.38.38.73.73,1.04,1.05,2.91,2.95,2.96,4.33,7.22,4.33,4.32,0,7.82-4.71,7.84-4.74l9.1-9.69c7.85-7.25,8.16-10.18,29.81-28.54a227.176,227.176,0,0,1,19.26-15c7.81-5.61,12.28-7.96,20.52-13.94,6.8-4.93,13.05-11.3,16.26-14.25,6.69-6.14,11.15-8.21,19.37-18a170.98,170.98,0,0,0,17.18-25.59l.11-.18c31.63-46.69,26.64-82.03,26.58-82.38l-.03-.2.01-.21a72.7,72.7,0,0,0-9.61-36.06c-10.33-17.89-29.54-25.18-29.74-25.25-.29-.11-26.64-8.27-57.62,3.67-30.86,11.9-41.14,35.76-41.24,36.01l-1.91,4.91-1.83-4.94c-.14-.38-14.44-38.18-48.15-50.1A67.871,67.871,0,0,0,342.19,204.01Z" fill="#1d1d1b"/><path d="M355.92,428.65c1,.62,2.02,1.2,3.07,1.73,5.45,2.75,22.49,10.7,37.35,10.7,22.69,0,35.22-7.81,50.6-16.37,15.63-8.7,17-29.65,17-29.65l-7.23-3.92-42.59-2.39-30.67.81-29.89,2.02-23.25,3.49s12.95,25.71,19.93,30.06Z" fill="url(#b)"/><path d="M414.09,390.74l42.06,2.36,5.66,3.07c-.59,4.49-3.49,19.92-15.84,26.79-.91.51-1.81,1.01-2.7,1.51-14,7.84-25.32,13.04-46.15,13.04a72.656,72.656,0,0,1-30.99-6.77c-.63-.32-2.83-1.09-7.01-3-1.47-.67-1.8-1.08-4.38-2.45l-4.8-4.03c-4.44-3.34-12.27-16.42-16.57-24.64l20.41-3.06,29.77-2.01,30.54-.81m.03-2-30.67.81-29.89,2.02-23.25,3.49s12.95,25.71,19.93,30.06l5.68,3.53c1,.62,2.02,1.2,3.07,1.73,5.45,2.75,22.49,10.7,37.35,10.7,22.69,0,35.22-7.81,50.6-16.37,15.63-8.7,17-29.65,17-29.65l-7.23-3.92-42.59-2.4Z" fill="#1d1d1b"/><path d="M327.55,396.77v8.68l3.35,8.15,5.94,3.79h8.77l6.71-2.48,4.21-6.36v-7.14l-.29-7.67.29-2.37Z" fill="url(#c)"/><path d="M444.86,389.81l.62,11.96,3.5,6.24,5.17,2.41h8.77l7.08-3.04,3.84-5.8v-7.13l.55-1.64-5.55-1.29Z" fill="url(#d)"/><path d="M340.35,419.05a12.436,12.436,0,0,1-9.29-3.98c-2.74-2.74-4.96-5.37-5.27-10.7l.15-8.32,32.27-5.47-.04,10.76c.64,9.05-5.75,16.98-14.24,17.66l-.04-.5.04.5C343.52,419.03,340.75,419.05,340.35,419.05ZM328.74,397v7.56c.29,2.76,2.97,7.02,6.24,9.29,3.56,2.47,6.2,2.36,9.97,1.89,7.42-.93,11.36-5.28,11.58-14.33l-.29-8.48Z" fill="#1d1d1b"/><path d="M457.98,413.57l.03-.5-.03.5c-8.51-.55-15.02-8.37-14.52-17.44l.25-7.39,32.16,3.58v6.33c-.23,5.33-3.63,8.48-6.72,10.8-3.06,2.3-6.29,4.08-9.98,4.14C458.77,413.6,458.38,413.59,457.98,413.57Zm-12-22.54v5.15c.36,9.05,2.68,11.34,10.06,12.5,4.02.63,5.95.48,10.06-1.79,3.49-1.93,5.81-4.02,6.39-8.13l.21-4.98Zm26.73,3.62" fill="#1d1d1b"/><path d="M311.03,401.17s37.35-9.26,87.29-10.59a481.656,481.656,0,0,1,90.77,6.29s3.48.97,4.45,0-1.19-3.13-1.19-3.13-36.93-6.55-89-6.55-92.32,10.98-92.32,10.98-6.44,1.24-6.77,2.48C303.68,402.81,311.03,401.17,311.03,401.17Z" fill="#1d1d1b"/><path d="M375.1,429.51l5.8-4.51,6.33-2.57,9.89-.66,7.72.66,5.42-1.82,6.13.71,3.48,1.55,3.23,5.42v5.16l-4.58,2.97-16.78,2.9-14.51-.97-14.39-3.8-.45-1.61Z" fill="url(#e)"/><path d="M420.34,422.25c-2.13-2.13-7.35-3.1-11.42-3.1s-5.61,1.66-5.61,1.66h-12c-12,0-20.32,12.27-20.32,12.27v.97l14.9,4.65,18.19,1.16s18.39-1.94,19.74-6.77S422.47,424.38,420.34,422.25Zm1.84,7.87a4.274,4.274,0,0,1-2.43,4.06,31.429,31.429,0,0,1-6.72,2.16c-3.17.73-6.3,1.18-7.96,1.4a9.755,9.755,0,0,1-2.02.06l-15.48-.99a11.311,11.311,0,0,1-2.57-.48l-10.02-3.12a.872.872,0,0,1-.39-1.41c2.97-3.35,9.11-8.99,16.73-8.99h5.99a8.052,8.052,0,0,1,1.55.14c2.11.39,6.29,1.5,7.62,4.39,1.21,2.63,2.64,2.15,3.46,1.54a1.273,1.273,0,0,0,.44-1.37c-.39-1.41-1.03-4.41.55-4.75a20.141,20.141,0,0,1,5.08-.31,4.628,4.628,0,0,1,2.2.66,3.983,3.983,0,0,1,.72.55A10.221,10.221,0,0,1,422.18,430.12Z" fill="#1d1d1b"/><path d="M342.08,363.46c.8,11.51-8.55,21.54-20.9,22.4s-23.01-7.77-23.81-19.28,8.55-21.54,20.9-22.4S341.27,351.96,342.08,363.46Z" fill="url(#f)"/><path d="M507.17,357.85c.68,9.69-7.34,18.14-17.91,18.88s-19.69-6.52-20.37-16.21,7.34-18.14,17.91-18.88S506.49,348.16,507.17,357.85Z" fill="url(#g)"/><circle cx="6.84" cy="6.84" r="6.84" transform="translate(320.74 351.9)" fill="url(#h)"/><circle cx="6.84" cy="6.84" r="6.84" transform="translate(488.48 347.06)" fill="url(#i)"/><path d="M216,341.52l23.81-11.94,38.96-16.32,25.46-9.29,30.03-7.74,31.35-6.58,20.13-1.94,42.97-.77,47.16,2.9,30.07,4.84,22.83,7.55,18,8.32L563.03,321l2.71,2.71-24.19,44.9-11.71-7.41-22.55-9.62-34.58-9.68-26.73-2.96-28.5-1.1-40.06,4.06-41.61,7.55-31.58,9.74-24.55,11.06-18.39,10.94-8.27,6-5.67,3.84-7.93-3.84-8.9-8.09-8.63-15.13-4.63-14.13Z" fill="url(#j)"/><path d="M247.16,392.24c-3.25,0-14.75-4.32-24.56-23.53-9.4-18.41-8.33-26.87-8.28-27.22l.1-.74.65-.36c.98-.55,99.29-54.77,187.31-54.77,91.27,0,123.61,7.16,164.81,36.47l1.09.78L541.8,370.69l-1.39-1.11c-.47-.38-48.03-37.44-143.15-28.32-95.36,9.14-132.6,40.04-132.96,40.35C261.09,384.14,250.52,392.24,247.16,392.24Zm-29.9-49.62c0,2.3.62,10.26,8.01,24.73,9.19,18,19.76,21.89,21.89,21.89,1.63-.03,9.18-5.19,15.24-9.95,1.47-1.26,38.28-31.79,134.58-41.02,50.34-4.82,87.11,3.27,109.1,10.91,19.52,6.79,30.98,14.26,34.79,16.99l23.49-42.42c-40.05-28.22-72.29-35.14-161.97-35.14C319.14,288.63,226.41,337.67,217.26,342.62Z" fill="#1d1d1b"/><path d="M266.86,389.24l-4.86,3H251.68l-2.58-1.66,7.89-6.27,4.36-2.34,5.51,4.5Z" fill="url(#k)"/><path d="M536.71,374.23l-4.14,2.31-8.79,1.54-1.13-1.67,5.41-8.61,3.38-5.96,9.01,6.71Z" fill="url(#l)"/><path d="M256.89,393.77c-8.11,0-10.91-1.56-11.22-1.75l-2.93-1.79,6.76-1.9,3.54-2.38,9.44-6.85,7.2,7.23,1.56,2.2-.29.75c-.27.7-2.09,4.18-12.07,4.47C258.19,393.76,257.52,393.77,256.89,393.77Zm-3.87-3.96a52.882,52.882,0,0,0,6.76-.04c5.57-.16,5.83-1.58,6.76-2.3l-1.29-1.37-3.07-3.07-7.42,5.38Z" fill="#1d1d1b"/><path d="M523.32,382.68a17.794,17.794,0,0,1-3.76-.41l-1.67-.36,1.3-3.51,11.5-18.56,12.77,7.9-.63,1.23C542.74,369.12,535.69,382.68,523.32,382.68Zm.61-6.25c9.33.87,13.05-3.67,15.03-6.87l-7.32-5.6Z" fill="#1d1d1b"/><path d="M282.77,342.56l2.6-1.05a6.886,6.886,0,0,0,3.46,2.4,5.927,5.927,0,0,0,3.99-.25,3.57,3.57,0,0,0,1.74-1.31,1.714,1.714,0,0,0,.18-1.66c-.35-.87-1.71-1.16-4.07-.88-.77.1-1.37.16-1.81.2-1.43.13-2.55.21-3.35.21a6.962,6.962,0,0,1-1.8-.15,5.834,5.834,0,0,1-2.34-1.15,5.182,5.182,0,0,1-1.43-2.04,5.83,5.83,0,0,1,.24-5.2,8.754,8.754,0,0,1,4.65-3.83,15.315,15.315,0,0,1,3.27-.94,13.394,13.394,0,0,1,3.23-.13l.12-1.1,2.58-1.05,2.54,6.26-3.03,1.23a5.152,5.152,0,0,0-2.84-2.17,5.7,5.7,0,0,0-3.67.4,3.605,3.605,0,0,0-1.76,1.36,1.74,1.74,0,0,0-.23,1.67c.33.8,1.57,1.01,3.73.61.53-.09.95-.17,1.24-.21q4.56-.735,6.82.01a5.2,5.2,0,0,1,3.25,3.2,5.654,5.654,0,0,1-.3,5.19,9.511,9.511,0,0,1-4.91,3.88,14.136,14.136,0,0,1-3.23.89,15.153,15.153,0,0,1-3.38.1l-.26,1.27-2.47,1Z" fill="#432918"/><path d="M307.32,325.88a7.784,7.784,0,0,1,4.43-.48,3.895,3.895,0,0,1,1.9,5.64,7.844,7.844,0,0,1-3.83,2.28l-2.57.86.96,2.87c.17.52.35.82.52.9a1.509,1.509,0,0,0,.95-.11l.76-.25.64,1.9-8.04,2.69-.64-1.9.67-.22c.47-.16.75-.32.84-.49a1.571,1.571,0,0,0-.12-1.03l-2.44-7.29c-.17-.52-.35-.82-.52-.89a1.5,1.5,0,0,0-.96.12l-.67.23-.63-1.89Zm-.6,6.65.88-.29a3.39,3.39,0,0,0,1.8-1.11,1.921,1.921,0,0,0,.06-1.71,1.83,1.83,0,0,0-1.02-1.25,3.43,3.43,0,0,0-2.05.22l-.95.32Z" fill="#432918"/><path d="M316.19,330.37a7.09,7.09,0,0,1,.63-5.87,10.036,10.036,0,0,1,11.56-3.2,8.009,8.009,0,0,1,2.93,10.57,8.617,8.617,0,0,1-5.27,3.52,8.508,8.508,0,0,1-6.29-.32A7.13,7.13,0,0,1,316.19,330.37Zm6.46-7.33a2.179,2.179,0,0,0-1.67,1.77,13.008,13.008,0,0,0,2.17,7.83,2.132,2.132,0,0,0,2.32.66,2.179,2.179,0,0,0,1.67-1.76,9.357,9.357,0,0,0-.46-4.07,9.588,9.588,0,0,0-1.71-3.76A2.148,2.148,0,0,0,322.65,323.04Z" fill="#432918"/><path d="M335.69,329.05l-1.67-7.51c-.12-.53-.26-.85-.42-.94a1.562,1.562,0,0,0-.97.02l-.69.15-.43-1.94,9.47-2.11a6.9,6.9,0,0,1,3.94.01,2.99,2.99,0,0,1,1.81,2.3,2.783,2.783,0,0,1-.33,2.12,4.163,4.163,0,0,1-1.91,1.56,2.739,2.739,0,0,1,2.09.43,6.363,6.363,0,0,1,1.19,3.03,3.128,3.128,0,0,0,.35,1,.434.434,0,0,0,.48.19c.19-.04.3-.19.34-.44a3.286,3.286,0,0,0-.1-1.09c-.01-.05-.03-.12-.06-.23s-.05-.18-.06-.24l1.39-.31c.01.06.04.15.07.27s.06.21.07.27a4.117,4.117,0,0,1-.17,2.96,3.4,3.4,0,0,1-2.36,1.44,4.073,4.073,0,0,1-2.9-.17,3.268,3.268,0,0,1-1.41-2.29l-.26-1.15a2.81,2.81,0,0,0-.76-1.67,2.212,2.212,0,0,0-1.6-.04l-1.23.27.69,3.08c.12.53.26.85.43.95a1.51,1.51,0,0,0,.96-.01l.78-.17.44,1.95-8.28,1.85-.44-1.95.69-.15a1.516,1.516,0,0,0,.88-.4A1.612,1.612,0,0,0,335.69,329.05Zm3.41-5.95,1.2-.27a3.121,3.121,0,0,0,1.7-.8,1.644,1.644,0,0,0,.21-1.47,1.882,1.882,0,0,0-.8-1.35,2.6,2.6,0,0,0-1.77-.05l-1.35.3Z" fill="#432918"/><path d="M352.81,316.58a2.119,2.119,0,0,0-1.61,1.08,3.673,3.673,0,0,0-.21,2.35l.01.06-2.05.36-.93-5.25,14.6-2.59.93,5.25-2.03.36-.01-.06a3.557,3.557,0,0,0-1.01-2.13,2.115,2.115,0,0,0-1.9-.46l-.61.11,1.52,8.54q.135.795.39.96a1.477,1.477,0,0,0,.98.03l1.16-.21.35,1.97-9.13,1.62-.35-1.97,1.08-.19a1.7,1.7,0,0,0,.89-.33c.13-.14.14-.49.04-1.06l-1.52-8.54Z" fill="#432918"/><path d="M373.86,305.65l.34,2.73-.17.02a2.146,2.146,0,0,0-1.19.39q-.27.27-.12,1.44l.59,4.78,5.59-5.91a1.621,1.621,0,0,0,.31-.44.761.761,0,0,0,.07-.41.4.4,0,0,0-.32-.34,2.365,2.365,0,0,0-.87-.02l-1.62.2-.34-2.73,10.77-1.33.34,2.73-.98.12a2.659,2.659,0,0,0-1.16.51,8.337,8.337,0,0,0-1.39,1.24l-3.48,3.81,6.17,7.16a3.353,3.353,0,0,0,1.06.88,2.135,2.135,0,0,0,1.17.16l1.18-.15.34,2.74L378.2,324.7l-.34-2.74.91-.11a3.221,3.221,0,0,0,1.02-.25.439.439,0,0,0,.26-.45,1.555,1.555,0,0,0-.1-.37,1.213,1.213,0,0,0-.21-.31l-3.35-3.94-2.62,2.61.2,1.62c.09.74.24,1.19.46,1.35a1.965,1.965,0,0,0,1.29.12l.63-.08.34,2.74-11.02,1.36-.34-2.74.97-.12a2.115,2.115,0,0,0,1.27-.43,2.146,2.146,0,0,0,.12-1.43l-1.3-10.54q-.135-1.125-.45-1.35a2.188,2.188,0,0,0-1.34-.1l-.97.12-.34-2.73Z" fill="#432918"/><path d="M396.72,322.92l-.15-1.99.63-.05a2.99,2.99,0,0,0,.97-.16.318.318,0,0,0,.15-.35,1.545,1.545,0,0,0-.05-.31,1.611,1.611,0,0,0-.09-.29l-.61-1.47-3.78.28-.34,1.37a4.763,4.763,0,0,0-.12.49,1.831,1.831,0,0,0-.02.32c.01.12.1.21.28.27a2,2,0,0,0,.73.05l.7-.05.15,1.99-6.28.46-.15-1.99.52-.04a1.313,1.313,0,0,0,.87-.4,2.678,2.678,0,0,0,.55-1.15l2.92-10.88,5.08-.37,4.07,10.33a3.087,3.087,0,0,0,.71,1.22,1.531,1.531,0,0,0,.91.16l.74-.05.15,1.99Zm.05-6.57-1.59-4.16-.88,4.34Z" fill="#432918"/><path d="M425.04,307.59l.06,1.99-.7.02a1.484,1.484,0,0,0-.93.21c-.14.12-.2.47-.18,1.03l.23,7.69c.02.57.1.91.25,1.02a1.536,1.536,0,0,0,.94.15l.7-.02.06,2-7.73.23-.06-2,.52-.02a1.671,1.671,0,0,0,.93-.2c.15-.12.21-.47.19-1.05l-.25-8.57-3.26,11.88-3.3.1-3.77-11.65.25,8.55a1.6,1.6,0,0,0,.24,1.01,1.5,1.5,0,0,0,.95.17l.52-.02.06,2-6.31.19-.06-2,.65-.02a1.506,1.506,0,0,0,.94-.22q.21-.2.18-1.02l-.23-7.69c-.02-.55-.09-.88-.23-1a1.538,1.538,0,0,0-.96-.16l-.65.02-.06-1.99,7.89-.23,2.64,8.32,2.33-8.47Z" fill="#432918"/><path d="M432.85,321.82l.02-2,.64.01a2.853,2.853,0,0,0,.98-.08.335.335,0,0,0,.18-.33,3.035,3.035,0,0,0-.02-.31c-.02-.1-.04-.2-.06-.29l-.48-1.51-3.79-.04-.46,1.34a3.789,3.789,0,0,0-.16.48,1.272,1.272,0,0,0-.04.32c0,.12.08.22.25.29a1.963,1.963,0,0,0,.73.11l.7.01-.02,2-6.29-.07.02-2,.52.01a1.238,1.238,0,0,0,.9-.33,2.614,2.614,0,0,0,.64-1.1l3.83-10.6,5.1.06,3.18,10.64a3.03,3.03,0,0,0,.6,1.27,1.4,1.4,0,0,0,.89.23l.74.01-.02,2Zm.61-6.55-1.23-4.28-1.25,4.25Z" fill="#432918"/><path d="M441.68,316.68l2.03.14a5,5,0,0,0,1.49,2.66,4.289,4.289,0,0,0,2.67,1.1,2.651,2.651,0,0,0,1.55-.3,1.241,1.241,0,0,0,.65-1.02c.05-.68-.74-1.3-2.37-1.87-.53-.18-.94-.33-1.24-.45-.98-.37-1.73-.68-2.25-.92a5.37,5.37,0,0,1-1.13-.67,4.29,4.29,0,0,1-1.16-1.49,3.718,3.718,0,0,1-.28-1.78,4.245,4.245,0,0,1,1.81-3.31,6.281,6.281,0,0,1,4.24-1.01,11.406,11.406,0,0,1,2.43.42,9.748,9.748,0,0,1,2.15.94l.43-.68,2.02.14-.34,4.88-2.36-.16a3.761,3.761,0,0,0-1.16-2.32,4.214,4.214,0,0,0-2.52-.91,2.648,2.648,0,0,0-1.58.32,1.263,1.263,0,0,0-.68,1.01c-.04.63.7,1.16,2.23,1.58.38.11.67.19.88.25a11.224,11.224,0,0,1,4.43,2.17,3.762,3.762,0,0,1,1.1,3.11,4.1,4.1,0,0,1-1.84,3.28,6.829,6.829,0,0,1-4.43.96,10.233,10.233,0,0,1-2.38-.45,11.047,11.047,0,0,1-2.23-1.01l-.58.74-1.92-.13Z" fill="#432918"/><path d="M461.85,319.03a3.777,3.777,0,0,0,.19,2.33,2.067,2.067,0,0,0,1.61.88,2.776,2.776,0,0,0,2.13-.36,2.97,2.97,0,0,0,.91-2.02l.87-6.33a1.57,1.57,0,0,0-.06-1.03,1.52,1.52,0,0,0-.91-.31l-.71-.1.27-1.97,6.47.89-.27,1.97-.64-.09a1.478,1.478,0,0,0-.96.06c-.16.11-.27.41-.34.91l-.93,6.73a3.956,3.956,0,0,1-2.08,3.17,8.077,8.077,0,0,1-4.89.51,7.392,7.392,0,0,1-4.23-1.75,3.826,3.826,0,0,1-1.11-3.45l.94-6.85c.07-.53.05-.87-.08-1.02a1.574,1.574,0,0,0-.93-.33l-.71-.1.27-1.97,8.41,1.16-.27,1.97-.77-.11a1.49,1.49,0,0,0-.99.07c-.16.11-.27.43-.34.96Z" fill="#432918"/><path d="M477.72,314.27a2.119,2.119,0,0,0-1.89.42,3.688,3.688,0,0,0-1.05,2.12l-.01.06-2.04-.41,1.04-5.23,14.54,2.89-1.04,5.23-2.02-.4.01-.06a3.648,3.648,0,0,0-.16-2.35,2.15,2.15,0,0,0-1.6-1.12l-.6-.12-1.69,8.51a1.517,1.517,0,0,0,.01,1.03,1.488,1.488,0,0,0,.91.38l1.16.23-.39,1.96-9.09-1.81.39-1.96,1.08.21a1.772,1.772,0,0,0,.95.02c.17-.08.31-.41.42-.98l1.69-8.51Z" fill="#432918"/><path d="M488.65,325.4l1.95-7.44c.14-.53.16-.87.06-1.03a1.546,1.546,0,0,0-.87-.43l-.68-.18.51-1.92,9.38,2.47a6.821,6.821,0,0,1,3.49,1.82,2.976,2.976,0,0,1,.55,2.87,2.764,2.764,0,0,1-1.26,1.74,4.13,4.13,0,0,1-2.41.51,2.7,2.7,0,0,1,1.66,1.34,6.357,6.357,0,0,1-.33,3.24,2.743,2.743,0,0,0-.14,1.05.45.45,0,0,0,.34.39.456.456,0,0,0,.5-.24,3.173,3.173,0,0,0,.41-1.02c.01-.05.03-.12.05-.23s.04-.19.05-.24l1.38.36a1.806,1.806,0,0,0-.06.28c-.02.13-.05.22-.06.28a4.183,4.183,0,0,1-1.51,2.56,3.344,3.344,0,0,1-2.75.19,4.1,4.1,0,0,1-2.5-1.48,3.265,3.265,0,0,1-.2-2.68l.3-1.14a2.894,2.894,0,0,0,.1-1.84,2.239,2.239,0,0,0-1.41-.77l-1.22-.32-.8,3.05c-.14.53-.16.87-.05,1.04a1.519,1.519,0,0,0,.86.43l.77.2-.51,1.93-8.2-2.16.51-1.93.68.18a1.491,1.491,0,0,0,.97.05A1.758,1.758,0,0,0,488.65,325.4Zm5.76-3.73,1.19.31a3.038,3.038,0,0,0,1.88.06,1.651,1.651,0,0,0,.86-1.21,1.927,1.927,0,0,0-.09-1.57,2.63,2.63,0,0,0-1.55-.85l-1.34-.35Z" fill="#432918"/><path d="M508.87,334.52l.63-1.9.6.2a3.408,3.408,0,0,0,.96.23c.13-.01.22-.1.28-.26a1.73,1.73,0,0,0,.07-.31c.02-.1.02-.2.03-.3v-1.59l-3.6-1.19-.84,1.14c-.14.17-.23.31-.3.41a1.1,1.1,0,0,0-.14.29c-.04.12.01.23.15.35a2.009,2.009,0,0,0,.66.33l.66.22-.63,1.9-5.98-1.98.63-1.9.5.17a1.27,1.27,0,0,0,.96-.04,2.756,2.756,0,0,0,.95-.85l6.86-8.94,4.84,1.6-.2,11.1a3.127,3.127,0,0,0,.19,1.4,1.439,1.439,0,0,0,.78.49l.7.23-.63,1.9Zm2.56-6.05.12-4.45-2.48,3.67Z" fill="#432918"/></g></svg>