<svg xmlns="http://www.w3.org/2000/svg" xmlns:xlink="http://www.w3.org/1999/xlink" width="268.879" height="235.673" viewBox="0 0 268.879 235.673"><defs><linearGradient id="a" x1="0.185" y1="0.04" x2="0.866" y2="0.696" gradientUnits="objectBoundingBox"><stop offset="0.358" stop-color="#cbbba0"/><stop offset="0.498" stop-color="#cbb491"/><stop offset="0.763" stop-color="#caa06b"/><stop offset="0.789" stop-color="#ca9e67"/></linearGradient><linearGradient id="b" x1="0.007" y1="0.825" x2="1.024" y2="-0.022" gradientUnits="objectBoundingBox"><stop offset="0.083" stop-color="#ca9e67"/><stop offset="0.161" stop-color="#cbb18d"/><stop offset="0.21" stop-color="#cbbba0"/><stop offset="0.438" stop-color="#ca9e67"/><stop offset="0.508" stop-color="#caa97e"/><stop offset="0.591" stop-color="#cbb391"/><stop offset="0.676" stop-color="#cbb99c"/><stop offset="0.765" stop-color="#cbbba0"/><stop offset="0.81" stop-color="#cbae87"/><stop offset="0.863" stop-color="#caa270"/><stop offset="0.896" stop-color="#ca9e67"/></linearGradient><radialGradient id="c" cx="0.5" cy="0.5" r="0.97" gradientTransform="translate(0.304) scale(0.392 1)" gradientUnits="objectBoundingBox"><stop offset="0" stop-color="#141414"/><stop offset="1"/></radialGradient><linearGradient id="d" y1="0.5" x2="1" y2="0.5" gradientUnits="objectBoundingBox"><stop offset="0" stop-color="#fff"/><stop offset="1" stop-color="#a7a7a7"/></linearGradient><linearGradient id="e" x1="0" y1="0.5" x2="1" y2="0.5" xlink:href="#d"/><linearGradient id="f" x1="0.032" y1="1.033" x2="0.925" y2="0.152" gradientUnits="objectBoundingBox"><stop offset="0" stop-color="#630000"/><stop offset="0.024" stop-color="#710000"/><stop offset="0.096" stop-color="#940000"/><stop offset="0.168" stop-color="#b00000"/><stop offset="0.241" stop-color="#c30000"/><stop offset="0.315" stop-color="#cf0000"/><stop offset="0.389" stop-color="#d30000"/><stop offset="0.689" stop-color="#9a0000"/><stop offset="0.761" stop-color="#8c0000"/><stop offset="0.811" stop-color="#920000"/><stop offset="0.879" stop-color="#a30000"/><stop offset="0.956" stop-color="#c00000"/><stop offset="1" stop-color="#d30000"/></linearGradient><radialGradient id="g" cx="0.488" cy="0.488" fx="0.7813945412635803" fy="0.28554001450538635" r="0.518" gradientTransform="translate(0.034) scale(0.933 1)" gradientUnits="objectBoundingBox"><stop offset="0.403" stop-color="#141414"/><stop offset="0.621"/></radialGradient><radialGradient id="h" cx="0.581" cy="0.456" fx="0.3604738116264343" fy="0.6865550875663757" r="0.345" gradientTransform="matrix(-0.882, -0.274, 0.246, -0.939, 0.981, 1.044)" gradientUnits="objectBoundingBox"><stop offset="0.199" stop-color="#3f3f3f"/><stop offset="0.843"/></radialGradient><radialGradient id="i" cx="0.5" cy="0.5" r="0.5" gradientUnits="objectBoundingBox"><stop offset="0" stop-color="#fff"/><stop offset="0.373" stop-color="#fdfdfd"/><stop offset="0.507" stop-color="#f6f6f6"/><stop offset="0.603" stop-color="#ebebeb"/><stop offset="0.68" stop-color="#dadada"/><stop offset="0.746" stop-color="#c4c4c4"/><stop offset="0.805" stop-color="#a8a8a8"/><stop offset="0.858" stop-color="#888"/><stop offset="0.907" stop-color="#626262"/><stop offset="0.952" stop-color="#373737"/><stop offset="0.993" stop-color="#090909"/><stop offset="1"/></radialGradient><radialGradient id="j" cx="0.5" cy="0.5" r="0.5" xlink:href="#i"/><linearGradient id="k" x1="0.117" y1="-0.159" x2="0.849" y2="1.26" gradientUnits="objectBoundingBox"><stop offset="0" stop-color="#b4691e"/><stop offset="0.083" stop-color="#ce8c31"/><stop offset="0.179" stop-color="#ce8c31"/><stop offset="0.273" stop-color="#deb159"/><stop offset="0.342" stop-color="#fdf09d"/><stop offset="0.406" stop-color="#faf5c1"/><stop offset="0.484" stop-color="#fdf09d"/><stop offset="0.587" stop-color="#deb159"/><stop offset="0.672" stop-color="#ce8c31"/><stop offset="0.772" stop-color="#c27c27"/><stop offset="0.834" stop-color="#cd8425"/><stop offset="0.883" stop-color="#e4a339"/><stop offset="0.931" stop-color="#efb449"/><stop offset="1" stop-color="#b6691e"/></linearGradient><linearGradient id="l" x1="0.906" y1="0.988" x2="0.189" y2="0.272" xlink:href="#k"/><linearGradient id="m" x1="0.898" y1="0.219" x2="-0.044" y2="0.815" xlink:href="#k"/></defs><g transform="translate(-52.864 -162.195)"><g transform="translate(217.938 239.133)"><path d="M3.263,15.074A10.55,10.55,0,0,0,.417,22.693C1.01,31.07,12.776,29.228,15.064,25s2.017-14.953-.941-15.708c-1.18-.3-3.692.437-6.25,1.965L9.478,0H0Z" transform="matrix(-0.966, -0.259, 0.259, -0.966, 62.117, 32.77)" fill="#b28b67" fill-rule="evenodd"/><path d="M8.391,12.852q.544-7.514,2.879-7.514c2.335,0,4.317,1.469,5.341,1.469.747,0,.58-.926.085-1.613-.408-.567-2.4-1.113-2.4-1.991s1.572-.2,1.572-.72C15.87,1.62,16.146,0,14.637,0,13.11,0,8.73.552,7.98,2.8q-.726,2.175-.939,9.015a2.41,2.41,0,0,1-.283.017,2.359,2.359,0,0,1-2.37-2.349A2.332,2.332,0,0,1,5.1,7.8c-.548-.767-1.163-1.568-1.867-2.4C.59,6.979-1.373,11.583,1.213,16.007a5.833,5.833,0,0,0,4.244,3.862,6.931,6.931,0,0,0,4.512.329,14.781,14.781,0,0,0,5.707-1.507c0-2.5-.488-3.236-4.655-3.171A7.652,7.652,0,0,1,8.391,12.852Z" transform="matrix(-0.966, -0.259, 0.259, -0.966, 64.467, 24.168)" fill="#191847" fill-rule="evenodd"/><path d="M182.67,0,163.287,48.872l-13,41.317h-5.134L165.027,0Z" transform="translate(-125.011 64.65)" fill="#997659" fill-rule="evenodd"/><path d="M52.535,0c.206,17.174,3.217,40.3,3.7,41.366q.481,1.07,33.2,27.227L85.9,72.363Q47.29,49.936,45.5,46.946C43.716,43.954,37.9,16.43,33.229,0Z" transform="translate(9.028 64.65)" fill="#b28b67" fill-rule="evenodd"/><path d="M.663,5.765A8.48,8.48,0,0,1,0,3.118,19.817,19.817,0,0,1,.356,0H22.631q.868,2.87-1,3.1t-3.108.413L8.167,8.128a.4.4,0,0,1-.522-.2l0-.01L6.976,6.3A7.1,7.1,0,0,0,4.161,5.5a6.374,6.374,0,0,0-2.43.711h0A.79.79,0,0,1,.684,5.817Q.673,5.792.663,5.765Z" transform="matrix(-0.643, 0.766, -0.766, -0.643, 103.804, 135.176)" fill="#e4e4e4" fill-rule="evenodd"/><path d="M23.326,23.338a8.48,8.48,0,0,1,.663,2.647,19.817,19.817,0,0,1-.356,3.118H1.358q-.868-2.87,1-3.1t3.108-.413l10.353-4.615a.4.4,0,0,1,.522.2l0,.01.666,1.614a7.1,7.1,0,0,0,2.814.808,6.374,6.374,0,0,0,2.43-.711h0a.79.79,0,0,1,1.047.389Q23.317,23.312,23.326,23.338Z" transform="translate(4.051 129.632)" fill="#e4e4e4" fill-rule="evenodd"/><path d="M162.675,85.933l-24.408-2.639L156.356,0h21.862Z" transform="translate(-118.048 64.65)" fill="#69a1ac" fill-rule="evenodd"/><path d="M100.132,62.512,84.121,81.39Q58.826,53.87,54.626,45.476T47.077,0H71.689q1.83,32.624,2.468,34.142T100.132,62.512Z" transform="translate(-6.715 64.65)" fill="#89c5cc" fill-rule="evenodd"/><path d="M61.854,34.954l12.6-9.205a34,34,0,0,0,8.563-3.424c.542-.491,1.2-1.485-1.05-1.313s-4.616.252-4.926-.51,1.049-1.673.423-2.7q-.627-1.029-5.919,5.157L59.069,28.1Zm-48.369-.318,8.253-.032Q14.094,10.05,13.485,8.548c-.914-2.254,1.02-5.686,1.847-7.53-2.693-1.2-2.406,3.242-5.8,1.669C6.427,1.251,4.067-1.35.484.85c-.44.271-.923,1.289.243,2.085,2.906,1.983,7.093,5.453,7.659,6.6Q9.544,11.866,13.485,34.637Z" transform="translate(82.272 100.752) rotate(-170)" fill="#b28b67" fill-rule="evenodd"/><path d="M0,43.866l3.351.878C16.923,35,23.931,14.608,40.369,4.919L37.047,0C9.917.959,1.039,25.8,0,43.866Z" transform="translate(54.07 69.99) rotate(-175)" fill="#e87613" fill-rule="evenodd"/><path d="M0,0H30.217c1.381,0,1.121,1.984.921,2.985-2.3,11.554-11.3,24.009-11.3,40.456L11.126,44.8C3.917,33.263,1.424,19.058,0,0Z" transform="translate(65.138 70.932) rotate(-170)" fill="#dde3e9" fill-rule="evenodd"/><path d="M14.118,49.965A4.979,4.979,0,0,0,11.111,52.5c-3.186,5.72-2.035,8.869,1.369,9.9s6.441-1.1,11.865-1.1a5.485,5.485,0,0,0,.811-.055l2.729-.155q11.743-39.6,6.477-52.843H10.578A80.521,80.521,0,0,0,6.533,0H.053Q-.862,29.434,14.118,49.965Z" transform="translate(75.936 89.596) rotate(-170)" fill="#ff9b21" fill-rule="evenodd"/><path d="M5.179,13.559Q6.3,4.218,8.826,0H0Q2.466,5.721,5.179,13.559Z" transform="translate(66.951 79.632) rotate(-170)" fill="rgba(0,0,0,0.1)" fill-rule="evenodd"/></g><g transform="translate(-291.136 -132.867)"><path d="M17.526,7.021c1.354,4.892,3.147,16.108,1.339,17.858H7.5l0-.06A8.431,8.431,0,0,1,0,16.441V8.429A8.429,8.429,0,0,1,8.429,0h.784A8.432,8.432,0,0,1,17.526,7.021Z" transform="matrix(0.966, -0.259, 0.259, 0.966, 383.391, 377.08)" fill="#191847" fill-rule="evenodd"/><path d="M3.239,13.4A10.473,10.473,0,0,1,.414,5.839C1-2.477,12.683-.648,14.955,3.549s2,14.844-.934,15.594c-1.171.3-3.666-.434-6.2-1.95L9.41,28.368H0Z" transform="matrix(0.966, -0.259, 0.259, 0.966, 384.93, 378.277)" fill="#b28b67" fill-rule="evenodd"/><path d="M12.448,13.164c.434,4.616.26,9.887-1.032,11.138H.046C-.588,13.392,5.535,17.617,5.535,7.346c.382-.37.742-.736,1.1-1.051l-.013-.3Q9.575,0,14.115,0c4.54,0,5.973,2.094,7.193,3.872-.912,3.1-4.453,3.563-7.6,5.5a2.146,2.146,0,1,0-1.359,3.8Z" transform="matrix(0.966, -0.259, 0.259, 0.966, 378.19, 378.876)" fill="#191847" fill-rule="evenodd"/><path d="M105.514,94.987q14.108,3.931,24.345,3.931a32.835,32.835,0,0,0,19.016-6.053q-13.806-4.035-22.74-4.035T105.514,94.987Z" transform="translate(276.831 380.654)" fill="#1f28cf" fill-rule="evenodd"/><path d="M153.616,46.017a2.217,2.217,0,0,1-.228-.443C152.131,42.261,131.993,6.532,129.987,0h22.672c1.526,4.967,8.391,36.134,9.357,42.352,3.048,9.809,9.325,41.576,10.126,43.777.843,2.315-3.9,4.727-5.164,1.881A241.592,241.592,0,0,1,158.042,63.3C156.042,56.126,154.414,49.672,153.616,46.017Z" transform="translate(261.216 437.332)" fill="#997659" fill-rule="evenodd"/><path d="M59.127,50.379c-9.206,2.318-42.882,6.509-45.193,7.166-2.377.676-4.462-4.205-1.523-5.262a243.775,243.775,0,0,1,25.37-7.156C44.063,43.851,49.8,42.809,53.646,42.2c-.326-10.77-1.817-36.617-.84-42.2H72.866c-.937,5.353-8.857,44.413-10.329,48.323-.467,1.4-1.861,2.013-3.411,2.056Z" transform="translate(337.156 437.332)" fill="#b28b67" fill-rule="evenodd"/><path d="M.658,2.38A8.418,8.418,0,0,0,0,5.008,19.674,19.674,0,0,0,.353,8.1H22.467q.862-2.85-1-3.077t-3.086-.41L8.108.034a.392.392,0,0,0-.518.2l0,.01-.661,1.6a7.051,7.051,0,0,1-2.794.8,6.327,6.327,0,0,1-2.412-.705h0a.784.784,0,0,0-1.04.386Q.668,2.354.658,2.38Z" transform="translate(351.98 487.218) rotate(80)" fill="#e4e4e4" fill-rule="evenodd"/><path d="M1.741,23.321a8.418,8.418,0,0,0-.658,2.628,19.674,19.674,0,0,0,.353,3.1H23.55q.862-2.85-1-3.077t-3.086-.41L9.191,20.975a.392.392,0,0,0-.518.2l0,.01-.661,1.6a7.051,7.051,0,0,1-2.794.8A6.327,6.327,0,0,1,2.8,22.883h0a.784.784,0,0,0-1.04.386Q1.751,23.294,1.741,23.321Z" transform="translate(425.014 501.691)" fill="#e4e4e4" fill-rule="evenodd"/><path d="M110.592-3.331q13.26-3.779,25.093,0c2.744,12.473,9.413,17.424,10.586,36.548-13.33,6.6-29.8-4.706-43.52,1.729C98.83,25.945,104.319,4.271,110.592-3.331Z" transform="translate(279.435 440.663)" fill="#2b44ff" fill-rule="evenodd"/><path d="M0,13.816,13.608,6.4A33.6,33.6,0,0,1,20.3.168c.671-.279,1.845-.448.747,1.491S18.88,5.686,19.439,6.283s1.954-.237,2.621.755q.667.992-7.147,3.135L5.025,19.183Zm21.314,6.258,5.978-3.268q1.258-4.764,3.008-4.794c.9-.415-.664,3.6,1.034,3.25s5.845-3.416,6.559-2.793c1.057.922.115,3.752-1,5.16-2.075,2.631-3.794,3.531-8.041,4.709a23.389,23.389,0,0,0-7.2,3.7Z" transform="translate(408.543 397.894) rotate(-10)" fill="#997659" fill-rule="evenodd"/><path d="M2.155,2.469A33.56,33.56,0,0,0,20.674,0L22.38,6.254c-5.343,3.831-12.434,6.551-18.09,5.493A5.167,5.167,0,0,1,2.155,2.469Z" transform="translate(401.286 409.391) rotate(-19)" fill="#2026a2" fill-rule="evenodd"/><path d="M31.711,24.486q7.591,1.884,25.458-4.443,4.432,9.123,4.1,13.009c-10.218,5.311-18.976,7.679-26.192,7.836A24.6,24.6,0,0,1,33.032,52.9c-3.6,7.615-24.672.563-31.758,1.951C-3.163,40.516,5.416,34.689,5.423,25.514,5.431,15.466,13.538,0,14.731,0H25.61C26.21,7.674,29.231,16.131,31.711,24.486Z" transform="translate(376.614 400.637) rotate(-10)" fill="#1f28cf" fill-rule="evenodd"/></g><g transform="translate(-72.26 121.555)"><path d="M264.279,277.279l-2.264-2.893-3.349-4.6-3.525-3.527-2.359-2.256-6.662-4.646-6.848-4.73-5.7-5.595-2.49-2.49-4.746-5.943-2.739-5.54-1.082-5.537.338-4.345,1.216-3.711,1.352-3.585,3.179-5.343,3.208-3.2,4.707-3.084,5.207-2.568,5.983-1.562,3.058-.587,3.808-.084,4.193.671,3.855,1.562,3.111,2.1,2.542,2.542,2.162,2.943,1.923,3.1.54,1.42,1.968-2.932,3.813-3.813,3.96-2.518,5.443-1.774,4.015-.294h3.65l4.172.941,4.465,2.442,3.016,3.016,2.254,3.847.828,7.167-.354,5.076-.862,3.747-5.794,12.788-4.2,6.447-5.267,5.265-4.028,3.425-2.241,2.1-3.158,1.8-5.325,3.726-4.416,3.85-3.037,3.037-2.3,2.3-1.308,1.565-1.116.76-1.337.238-1.2-.186Z" transform="translate(-6.096 -118.668)" fill="url(#a)"/><path d="M539.227,109.685l-.689-5.073-1.543-4.125-2.366-3.229-2.068-.936,2.11-2.961.922-5.626.726-8.619,1.15-6.693,1.069-2.683,2.356-3.54,2.078-1.58,3.289-1.53,3.7-1.148,3.069-.474h2.1l3.3.54,5.553,1.219,6.9.472,5.343-.81,4.463-1.963,5.75-4.733,5.409-6.221v2.974l-1.824,10.281L586.7,71.2l-3.111,4.772-1.758,1.992v2.906l-2.186,5.081-3.134,3.134-5.907,2.6h-3.179l-1.633,2.56-2.267,2.267-4.756.736-8.318.726-3.315.611-2.906,1.824-1.63,2.566Z" transform="translate(-234.887 -6.885)" fill="url(#b)"/><path d="M264.916,276.72a2.736,2.736,0,0,1-2.639-1.1c-.081-.084-.17-.173-.267-.27a11.612,11.612,0,0,1-1.166-1.614,47.435,47.435,0,0,0-9.654-10.936,66.033,66.033,0,0,0-8.265-6.017,51.267,51.267,0,0,1-7.212-5.3c-.228-.2-.493-.425-.784-.673-3.383-2.893-10.422-8.918-13.168-17.825-3.184-10.325,2.22-22.149,11.274-27.949,7.083-4.536,17.254-7.615,25.92-4.552,7.6,2.689,11.52,9.877,12.788,12.652a20.7,20.7,0,0,1,10.891-9.4,23.411,23.411,0,0,1,15.849-.506c.212.079,5.854,1.62,8.758,6.646a21.265,21.265,0,0,1,2.539,10.71c.121.865.846,9.712-7.435,21.953a45.139,45.139,0,0,1-4.612,6.863,39.253,39.253,0,0,1-4.591,4.817,33.276,33.276,0,0,1-3.462,3.239,51.314,51.314,0,0,1-5.05,3.648,70.011,70.011,0,0,0-6.358,4.3A90.185,90.185,0,0,0,267.4,275.473,2.918,2.918,0,0,1,264.916,276.72ZM252.641,200.5c-6.748,0-13.81,3.229-19.073,6.358-6.316,3.755-13.847,15.97-10.807,25.821,2.66,8.619,9.542,14.508,12.849,17.338.294.252.561.48.791.681a50.17,50.17,0,0,0,7.083,5.2,66.868,66.868,0,0,1,8.378,6.1c5.619,4.733,6.266,6.137,7.746,8.383.451.681,2.914,4,3.142,4.227.1.1.191.191.273.275.763.773.776,1.135,1.892,1.135a3.1,3.1,0,0,0,2.055-1.242l2.385-2.539c2.057-1.9,2.138-2.668,7.812-7.479a59.528,59.528,0,0,1,5.047-3.931c2.047-1.47,3.218-2.086,5.377-3.653a45.714,45.714,0,0,0,4.261-3.734c1.753-1.609,2.922-2.152,5.076-4.717a44.81,44.81,0,0,0,4.5-6.706l.029-.047c8.289-12.236,6.981-21.5,6.966-21.588l-.008-.052,0-.055a19.052,19.052,0,0,0-2.518-9.45,16.778,16.778,0,0,0-7.794-6.617,24.784,24.784,0,0,0-15.1.962,19.577,19.577,0,0,0-10.807,9.437l-.5,1.287-.48-1.295c-.037-.1-3.784-10.005-12.618-13.129A17.786,17.786,0,0,0,252.641,200.5Z" transform="translate(-4.856 -117.046)" fill="#1d1d1b"/><g transform="translate(244.672 131.865)"><path d="M337.021,399.206c.262.162.529.314.8.453,1.428.721,5.894,2.8,9.788,2.8,5.946,0,9.23-2.047,13.26-4.29,4.1-2.28,4.455-7.77,4.455-7.77l-1.895-1.027-11.161-.626-8.037.212-7.833.529-6.093.915s3.394,6.738,5.223,7.877Z" transform="translate(-330.31 -388.75)" fill="url(#c)"/></g><path d="M352.265,389.264l11.022.618,1.483.8c-.155,1.177-.915,5.22-4.151,7.021l-.708.4c-3.669,2.055-6.635,3.417-12.094,3.417a19.04,19.04,0,0,1-8.121-1.774c-.165-.084-.742-.286-1.837-.786-.385-.176-.472-.283-1.148-.642l-1.258-1.056c-1.164-.875-3.215-4.3-4.342-6.457l5.349-.8,7.8-.527,8-.212m.008-.524-8.037.212-7.833.529-6.093.915s3.394,6.738,5.223,7.877l1.488.925c.262.163.529.314.8.453,1.428.721,5.894,2.8,9.788,2.8,5.946,0,9.23-2.047,13.26-4.29,4.1-2.28,4.455-7.77,4.455-7.77l-1.895-1.027-11.161-.629Z" transform="translate(-85.638 -256.877)" fill="#1d1d1b"/><path d="M327.55,392.785v2.275l.878,2.136,1.557.993h2.3l1.758-.65,1.1-1.667V394l-.076-2.01.076-.621Z" transform="translate(-83.602 -258.818)" fill="url(#d)"/><path d="M444.86,389.81l.162,3.134.917,1.635,1.355.632h2.3l1.855-.8,1.006-1.52v-1.868l.144-.43-1.454-.338Z" transform="translate(-170.17 -257.667)" fill="url(#e)"/><path d="M329.606,398.041A3.259,3.259,0,0,1,327.171,397a3.881,3.881,0,0,1-1.381-2.8l.039-2.18,8.457-1.433-.01,2.82a4.242,4.242,0,0,1-3.732,4.628l-.01-.131.01.131C330.436,398.036,329.71,398.041,329.606,398.041Zm-3.043-5.778v1.981a4.091,4.091,0,0,0,1.635,2.435,3.214,3.214,0,0,0,2.613.5c1.944-.244,2.977-1.384,3.035-3.755l-.076-2.222Z" transform="translate(-82.303 -258.235)" fill="#1d1d1b"/><path d="M447.245,395.247l.008-.131-.008.131a4.241,4.241,0,0,1-3.805-4.57l.066-1.937,8.428.938v1.659a3.7,3.7,0,0,1-1.761,2.83,4.526,4.526,0,0,1-2.615,1.085C447.452,395.255,447.35,395.252,447.245,395.247ZM444.1,389.34v1.35c.094,2.372.7,2.972,2.636,3.276a3.346,3.346,0,0,0,2.636-.469,2.748,2.748,0,0,0,1.675-2.131l.055-1.305Zm7,.949" transform="translate(-169.117 -256.877)" fill="#1d1d1b"/><path d="M306.01,390.854a118.313,118.313,0,0,1,22.875-2.775,126.222,126.222,0,0,1,23.787,1.648s.912.254,1.166,0-.312-.82-.312-.82A147.632,147.632,0,0,0,330.2,387.19a101.847,101.847,0,0,0-24.193,2.877s-1.688.325-1.774.65C304.084,391.283,306.01,390.854,306.01,390.854Z" transform="translate(-66.391 -255.734)" fill="#1d1d1b"/><path d="M373.1,422.942l1.52-1.182,1.659-.674,2.592-.173,2.023.173,1.42-.477,1.606.186.912.406.846,1.42v1.352l-1.2.778-4.4.76-3.8-.254-3.771-1-.118-.422Z" transform="translate(-116.691 -280.396)" fill="url(#f)"/><path d="M383.923,419.962a4.865,4.865,0,0,0-2.993-.812,2.042,2.042,0,0,0-1.47.435h-3.145c-3.145,0-5.325,3.215-5.325,3.215v.254l3.9,1.219,4.767.3s4.819-.508,5.173-1.774A2.908,2.908,0,0,0,383.923,419.962Zm.482,2.062a1.12,1.12,0,0,1-.637,1.064,8.235,8.235,0,0,1-1.761.566c-.831.191-1.651.309-2.086.367a2.559,2.559,0,0,1-.529.016l-4.057-.259a2.965,2.965,0,0,1-.674-.126l-2.626-.818a.228.228,0,0,1-.1-.37,6.314,6.314,0,0,1,4.384-2.356h1.57a2.11,2.11,0,0,1,.406.037c.553.1,1.648.393,2,1.15.317.689.692.563.907.4a.333.333,0,0,0,.115-.359c-.1-.369-.27-1.156.144-1.245a5.276,5.276,0,0,1,1.331-.081,1.213,1.213,0,0,1,.577.173,1.047,1.047,0,0,1,.189.144A2.679,2.679,0,0,1,384.4,422.025Z" transform="translate(-115.658 -279.318)" fill="#1d1d1b"/><path d="M309.051,349.189a5.887,5.887,0,1,1-6.24-5.052A5.684,5.684,0,0,1,309.051,349.189Z" transform="translate(-61.295 -223.951)" fill="url(#g)"/><path d="M478.892,345.85a5.047,5.047,0,1,1-5.338-4.248A4.831,4.831,0,0,1,478.892,345.85Z" transform="translate(-187.873 -222.082)" fill="url(#h)"/><circle cx="1.792" cy="1.792" r="1.792" transform="translate(242.164 122.208)" fill="url(#i)"/><circle cx="1.792" cy="1.792" r="1.792" transform="translate(286.121 120.94)" fill="url(#j)"/><path d="M216,301.243l6.24-3.129,10.21-4.277,6.672-2.435,7.87-2.028,8.216-1.724,5.275-.508,11.261-.2,12.359.76,7.88,1.268,5.983,1.979,4.717,2.18,4.261,2.739.71.71-6.339,11.766-3.069-1.942-5.909-2.521-9.062-2.537-7-.776-7.469-.288-10.5,1.064-10.9,1.979-8.276,2.552-6.434,2.9-4.819,2.867-2.167,1.572-1.486,1.006-2.078-1.006-2.332-2.12-2.262-3.965-1.213-3.7Z" transform="translate(-1.284 -181.755)" fill="url(#k)"/><path d="M222.881,313.561c-.852,0-3.865-1.132-6.436-6.166-2.463-4.825-2.183-7.042-2.17-7.133l.026-.194.17-.094c.257-.144,26.02-14.353,49.086-14.353,23.918,0,32.393,1.876,43.19,9.557l.286.2-6.939,12.532-.364-.291c-.123-.1-12.587-9.811-37.514-7.422-24.99,2.4-34.749,10.493-34.843,10.574C226.532,311.438,223.762,313.561,222.881,313.561Zm-7.836-13c0,.6.162,2.689,2.1,6.481,2.408,4.717,5.178,5.736,5.736,5.736a17.626,17.626,0,0,0,3.994-2.607c.385-.33,10.032-8.331,35.268-10.75,13.192-1.263,22.828.857,28.591,2.859a36.71,36.71,0,0,1,9.117,4.452l6.156-11.116c-10.5-7.4-18.944-9.209-42.446-9.209C241.744,286.409,217.444,299.26,215.046,300.557Z" transform="translate(0 -180.781)" fill="#1d1d1b"/><path d="M253.754,383.875l-1.274.786h-2.7l-.676-.435,2.068-1.643,1.143-.613,1.444,1.179Z" transform="translate(-25.71 -251.881)" fill="url(#l)"/><path d="M526.335,365.087l-1.085.605-2.3.4-.3-.438,1.418-2.256.886-1.562,2.361,1.758Z" transform="translate(-227.574 -237.027)" fill="url(#m)"/><path d="M246.448,382.944a6.136,6.136,0,0,1-2.94-.459l-.768-.469,1.772-.5.928-.624,2.474-1.8,1.887,1.895.409.577-.076.2c-.071.183-.548,1.1-3.163,1.171C246.789,382.942,246.613,382.944,246.448,382.944Zm-1.014-1.038a13.854,13.854,0,0,0,1.772-.01c1.46-.042,1.528-.414,1.772-.6l-.338-.359-.8-.8-1.944,1.41Z" transform="translate(-21.017 -249.764)" fill="#1d1d1b"/><path d="M519.313,365.825a4.665,4.665,0,0,1-.985-.107l-.438-.094.341-.92,3.014-4.864,3.346,2.07-.165.322C524.4,362.272,522.555,365.825,519.313,365.825Zm.16-1.638a3.714,3.714,0,0,0,3.939-1.8l-1.918-1.468Z" transform="translate(-224.061 -235.551)" fill="#1d1d1b"/><path d="M537.8,105.507l-.828-6.952a4.191,4.191,0,0,0-.372-1.3l-1.68-3.582a3.7,3.7,0,0,0-.671-.98l-3.611-3.782.521-.341c.066-.05,2.172-1.664,2.61-8.121l.013-.2c.485-7.125,1.032-15.2,3.336-18.273.364-.487.671-.9.936-1.26a10.237,10.237,0,0,1,3.391-3.4,22.53,22.53,0,0,1,10.734-3.194,21.27,21.27,0,0,1,6.994.9,25.567,25.567,0,0,0,6.5.993c.789,0,1.559.024,2.306.05,4.408.142,8.213.265,13.719-4.455,6.473-5.548,8.31-9.07,8.328-9.1l.951-1.868.039,2.1c0,.181.218,18.048-10.239,28.724a10.612,10.612,0,0,1-1.651,7.183c-2.322,3.619-6.722,6.116-13.077,7.424l-.464.094c-.9,1.564-2.117,3.4-3.095,3.8-1.606.658-2.712.991-10.246,1.392-6.806.362-8.142,1.774-9.117,2.8-.094.1-.186.2-.28.288-.734.734-3.014,6.006-4.279,9.156ZM532.2,89.024l2.815,2.946a4.729,4.729,0,0,1,.86,1.255l1.593,3.852a6.9,6.9,0,0,1,.4,1.716l.5,2.55c1.067-2.555,2.919-6.814,3.745-7.636.086-.086.17-.176.259-.27,1.1-1.158,2.6-2.746,9.822-3.129,7.691-.409,8.525-.749,9.906-1.316.949-.388,2.783-3.574,3.719-5.493l.307-.629c.2-.417.511-.21.482.215a.9.9,0,0,0,.034.288l.068.262a.955.955,0,0,0,1.156.687c5.115-1.281,8.415-3.184,10.375-6.224a9.557,9.557,0,0,0,1.473-6.7l-.063-.283.2-.2c8.362-8.362,9.825-21.518,10.076-26.324a47.676,47.676,0,0,1-7.537,7.817c-5.815,4.984-10,4.848-14.434,4.707-.739-.024-1.5-.047-2.272-.047a26.5,26.5,0,0,1-6.751-1.025,20.523,20.523,0,0,0-6.672-.87A21.476,21.476,0,0,0,542.029,58.2a9.291,9.291,0,0,0-3.121,3.139c-.265.359-.571.778-.941,1.266-2.117,2.822-2.678,11.082-3.129,17.715l-.013.2C534.453,85.877,532.962,88.18,532.2,89.024Z" transform="translate(-233.47)" fill="#1d1d1b"/><path d="M566.71,152.933c.039-.031,3.551-4.539,3.753-7.66.026-.414-.005-.854-.008-1.308-.039-4.177-.283-9.314,2.317-12.589.351-.443,1-1.122,1.216-1.344,2.851-2.9,5.312-5.008,13.488-4.555,2.738.152,3.627.236,4.389.307a27.924,27.924,0,0,0,3.252.139c1.344,0,2.982.131,4.916-.024l-3.247.736c-1.929.152-2.353.173-3.171.176a28.273,28.273,0,0,1-3.5-.176,24.923,24.923,0,0,0-4.209-.11c-6.745.212-8.2,1.813-10.98,4.646a9.283,9.283,0,0,0-1.546,1.905,22.545,22.545,0,0,0-1.876,10.881,8.9,8.9,0,0,1-1.8,6.187" transform="translate(-260.088 -62.559)" fill="#1d1d1b"/><path d="M596.42,183.558s3.422-2.587,4.628-4.628a51.1,51.1,0,0,0,2.828-6.96s-.126,5.579-1.724,7.38A19.64,19.64,0,0,1,596.42,183.558Z" transform="translate(-282.012 -96.914)" fill="#1d1d1b"/><path d="M628.874,159.39a8.539,8.539,0,0,1-2.56,7.406,7.578,7.578,0,0,1-7.634,1.688l.59-.59s2.317.671,5.4-1.224C626.026,165.831,627.3,165.2,628.874,159.39Z" transform="translate(-298.439 -87.631)" fill="#1d1d1b"/><path d="M654.48,163.912a11.155,11.155,0,0,0,4.565-2.448c1.756-1.756,2.815-5.844,2.815-5.844a6.024,6.024,0,0,1-1.09,5.734C658.513,164.216,654.48,163.912,654.48,163.912Z" transform="translate(-324.857 -84.848)" fill="#1d1d1b"/><path d="M598.94,139.486a7.729,7.729,0,0,0,5.579-3.346,13.314,13.314,0,0,0,1.5-7.178l1.394-.152a14.784,14.784,0,0,1-1.523,6.441A7.381,7.381,0,0,1,598.94,139.486Z" transform="translate(-283.872 -65.064)" fill="#1d1d1b"/><path d="M624.48,137.288a9.127,9.127,0,0,0,6.669-2.67,10.107,10.107,0,0,0,3-5.807l1.381.252a11.173,11.173,0,0,1-2.883,5.532C630.182,137.193,626.618,138.108,624.48,137.288Z" transform="translate(-302.719 -65.064)" fill="#1d1d1b"/><g transform="translate(231.341 109.664)"><path d="M280.315,329.329l.681-.275a1.8,1.8,0,0,0,.907.629,1.553,1.553,0,0,0,1.046-.065.936.936,0,0,0,.456-.343.449.449,0,0,0,.047-.435c-.092-.228-.448-.3-1.067-.231-.2.026-.359.042-.474.052-.375.034-.668.055-.878.055a1.825,1.825,0,0,1-.472-.039,1.529,1.529,0,0,1-.613-.3,1.358,1.358,0,0,1-.375-.535,1.528,1.528,0,0,1,.063-1.363,2.294,2.294,0,0,1,1.219-1,4.012,4.012,0,0,1,.857-.246,3.511,3.511,0,0,1,.846-.034l.031-.288.676-.275.666,1.641-.794.322a1.35,1.35,0,0,0-.744-.569,1.5,1.5,0,0,0-.962.1.945.945,0,0,0-.461.356.456.456,0,0,0-.06.438c.086.21.411.265.977.16.139-.024.249-.045.325-.055a4.031,4.031,0,0,1,1.787,0,1.364,1.364,0,0,1,.852.839,1.482,1.482,0,0,1-.079,1.36,2.492,2.492,0,0,1-1.287,1.017,3.7,3.7,0,0,1-.846.233,3.969,3.969,0,0,1-.886.026l-.068.333-.647.262Z" transform="translate(-279.443 -319.232)" fill="#432918"/><path d="M300.863,325.413a2.04,2.04,0,0,1,1.161-.126,1.021,1.021,0,0,1,.5,1.478,2.055,2.055,0,0,1-1,.6l-.673.225.252.752c.045.136.092.215.136.236a.4.4,0,0,0,.249-.029l.2-.066.168.5-2.107.7-.168-.5.176-.058c.123-.042.2-.084.22-.128a.412.412,0,0,0-.031-.27l-.639-1.91c-.045-.136-.092-.215-.136-.233a.392.392,0,0,0-.252.031l-.176.06-.165-.5Zm-.157,1.743.231-.076a.889.889,0,0,0,.472-.291.5.5,0,0,0,.016-.448.48.48,0,0,0-.267-.328.9.9,0,0,0-.537.058l-.249.084Z" transform="translate(-293.558 -319.687)" fill="#432918"/><path d="M315.934,323.116a1.858,1.858,0,0,1,.165-1.538,2.63,2.63,0,0,1,3.029-.839,2.1,2.1,0,0,1,.768,2.77,2.258,2.258,0,0,1-1.381.922,2.23,2.23,0,0,1-1.648-.084A1.869,1.869,0,0,1,315.934,323.116Zm1.693-1.921a.571.571,0,0,0-.438.464,3.407,3.407,0,0,0,.569,2.052.559.559,0,0,0,.608.173.571.571,0,0,0,.438-.461,2.452,2.452,0,0,0-.121-1.067,2.513,2.513,0,0,0-.448-.985A.563.563,0,0,0,317.627,321.2Z" transform="translate(-306.304 -316.214)" fill="#432918"/><path d="M332.605,319.747l-.438-1.968c-.031-.139-.068-.223-.11-.246a.41.41,0,0,0-.254.005l-.181.039-.113-.508,2.482-.553a1.808,1.808,0,0,1,1.033,0,.783.783,0,0,1,.474.6.729.729,0,0,1-.086.556,1.091,1.091,0,0,1-.5.409.718.718,0,0,1,.548.113,1.668,1.668,0,0,1,.312.794.818.818,0,0,0,.092.262.114.114,0,0,0,.126.05c.05-.01.079-.05.089-.115a.861.861,0,0,0-.026-.286c0-.013-.008-.031-.016-.06s-.013-.047-.016-.063l.364-.081c0,.016.01.039.018.071s.016.055.018.071a1.079,1.079,0,0,1-.045.776.89.89,0,0,1-.618.377,1.068,1.068,0,0,1-.76-.045.856.856,0,0,1-.37-.6l-.068-.3a.737.737,0,0,0-.2-.438.58.58,0,0,0-.419-.01l-.322.071.181.807c.031.139.068.223.113.249a.4.4,0,0,0,.252,0l.2-.045.115.511-2.17.485-.115-.511.181-.039a.4.4,0,0,0,.231-.1A.422.422,0,0,0,332.605,319.747Zm.894-1.559.314-.071a.818.818,0,0,0,.445-.21.431.431,0,0,0,.055-.385.493.493,0,0,0-.21-.354.682.682,0,0,0-.464-.013l-.354.079Z" transform="translate(-317.865 -313.191)" fill="#432918"/><path d="M349.275,313.636a.555.555,0,0,0-.422.283.963.963,0,0,0-.055.616l0,.016-.537.094-.244-1.376,3.826-.679.244,1.376-.532.094,0-.016a.932.932,0,0,0-.265-.558.554.554,0,0,0-.5-.121l-.16.029.4,2.238q.035.208.1.252a.387.387,0,0,0,.257.008l.3-.055.092.516-2.393.425-.092-.516.283-.05a.445.445,0,0,0,.233-.086c.034-.037.037-.128.01-.278l-.4-2.238Z" transform="translate(-330.049 -310.347)" fill="#432918"/><path d="M366.06,304.455l.089.715-.045.005a.562.562,0,0,0-.312.1q-.071.071-.031.377l.155,1.253,1.465-1.549a.424.424,0,0,0,.081-.115.2.2,0,0,0,.018-.107.105.105,0,0,0-.084-.089.62.62,0,0,0-.228-.005l-.425.052-.089-.715,2.822-.349.089.715-.257.031a.7.7,0,0,0-.3.134,2.186,2.186,0,0,0-.364.325l-.912,1,1.617,1.876a.879.879,0,0,0,.278.231.56.56,0,0,0,.307.042l.309-.039.089.718-3.132.385-.089-.718.238-.029a.843.843,0,0,0,.267-.066.115.115,0,0,0,.068-.118.407.407,0,0,0-.026-.1.318.318,0,0,0-.055-.081l-.878-1.033-.687.684.052.425c.024.194.063.312.121.354a.515.515,0,0,0,.338.031l.165-.021.089.718-2.888.356-.089-.718.254-.031a.554.554,0,0,0,.333-.113.562.562,0,0,0,.031-.375l-.341-2.762q-.035-.295-.118-.354a.573.573,0,0,0-.351-.026l-.254.031-.089-.715Z" transform="translate(-341.317 -304.03)" fill="#432918"/><path d="M390.831,312.39l-.039-.521.165-.013a.784.784,0,0,0,.254-.042.083.083,0,0,0,.039-.092.4.4,0,0,0-.013-.081.422.422,0,0,0-.024-.076l-.16-.385-.991.073-.089.359a1.227,1.227,0,0,0-.031.128.479.479,0,0,0-.005.084c0,.031.026.055.073.071a.523.523,0,0,0,.191.013l.183-.013.039.521-1.646.121-.039-.521.136-.01a.344.344,0,0,0,.228-.1.7.7,0,0,0,.144-.3l.765-2.851,1.331-.1,1.067,2.707a.808.808,0,0,0,.186.32.4.4,0,0,0,.238.042l.194-.013.039.522Zm.013-1.722-.417-1.09-.231,1.137Z" transform="translate(-360.098 -307.439)" fill="#432918"/><path d="M409.536,307.59l.016.522-.183.005a.389.389,0,0,0-.244.055c-.037.031-.052.123-.047.27l.06,2.015c.005.149.026.238.066.267a.4.4,0,0,0,.246.039l.183-.005.016.524-2.026.06-.016-.524.136-.005a.438.438,0,0,0,.244-.052c.039-.031.055-.123.05-.275l-.066-2.246-.854,3.113-.865.026-.988-3.053.065,2.241a.419.419,0,0,0,.063.265.394.394,0,0,0,.249.045l.136-.005.016.524-1.654.05-.016-.524.17-.005a.394.394,0,0,0,.246-.058q.055-.051.047-.267l-.06-2.015c-.005-.144-.024-.231-.06-.262a.4.4,0,0,0-.252-.042l-.17.005-.016-.522,2.068-.06.692,2.18.611-2.22Z" transform="translate(-371.381 -306.657)" fill="#432918"/><path d="M427.079,311.422l.005-.524.168,0a.746.746,0,0,0,.257-.021.088.088,0,0,0,.047-.086.784.784,0,0,0-.005-.081c-.005-.026-.01-.052-.016-.076l-.126-.4-.993-.01-.121.351a1,1,0,0,0-.042.126.334.334,0,0,0-.01.084c0,.031.021.058.066.076a.514.514,0,0,0,.191.029l.183,0-.005.524-1.648-.018.005-.524.136,0a.325.325,0,0,0,.236-.087.685.685,0,0,0,.168-.288l1-2.778,1.336.016.833,2.788a.8.8,0,0,0,.157.333.366.366,0,0,0,.233.06l.194,0-.005.524Zm.16-1.717-.322-1.122-.328,1.114Z" transform="translate(-386.878 -306.76)" fill="#432918"/><path d="M441.429,310.08l.532.037a1.311,1.311,0,0,0,.39.7,1.124,1.124,0,0,0,.7.288.7.7,0,0,0,.406-.079.325.325,0,0,0,.17-.267c.013-.178-.194-.341-.621-.49-.139-.047-.246-.086-.325-.118-.257-.1-.453-.178-.59-.241a1.409,1.409,0,0,1-.3-.176,1.124,1.124,0,0,1-.3-.39.974.974,0,0,1-.073-.466,1.112,1.112,0,0,1,.474-.867,1.646,1.646,0,0,1,1.111-.265,2.987,2.987,0,0,1,.637.11,2.556,2.556,0,0,1,.563.246l.113-.178.529.037-.089,1.279-.618-.042a.986.986,0,0,0-.3-.608,1.1,1.1,0,0,0-.66-.238.694.694,0,0,0-.414.084.331.331,0,0,0-.178.265c-.011.165.183.3.584.414l.231.066a2.941,2.941,0,0,1,1.161.569.986.986,0,0,1,.288.815,1.076,1.076,0,0,1-.482.86,1.789,1.789,0,0,1-1.161.252,2.682,2.682,0,0,1-.624-.118,2.9,2.9,0,0,1-.584-.265l-.152.194-.5-.034Z" transform="translate(-398.914 -306.765)" fill="#432918"/><path d="M457.821,311.481a.989.989,0,0,0,.05.611.542.542,0,0,0,.422.231.728.728,0,0,0,.558-.094.778.778,0,0,0,.238-.529l.228-1.659a.411.411,0,0,0-.016-.27.4.4,0,0,0-.238-.081l-.186-.026.071-.516,1.7.233-.071.516-.168-.024a.387.387,0,0,0-.252.016c-.042.029-.071.107-.089.238l-.244,1.764a1.037,1.037,0,0,1-.545.831,2.117,2.117,0,0,1-1.281.134,1.937,1.937,0,0,1-1.109-.459,1,1,0,0,1-.291-.9l.246-1.8c.018-.139.013-.228-.021-.267a.412.412,0,0,0-.244-.086l-.186-.026.071-.516,2.2.3-.071.516-.2-.029a.39.39,0,0,0-.259.018c-.042.029-.071.113-.089.252Z" transform="translate(-410.02 -307.55)" fill="#432918"/><path d="M474.038,312.027a.555.555,0,0,0-.5.11.966.966,0,0,0-.275.556l0,.016-.535-.107L473,311.23l3.81.757-.273,1.371-.529-.1,0-.016a.957.957,0,0,0-.042-.616.563.563,0,0,0-.419-.293l-.157-.031-.443,2.23a.4.4,0,0,0,0,.27.39.39,0,0,0,.238.1l.3.06-.1.514L473.013,315l.1-.514.283.055a.465.465,0,0,0,.249.005c.045-.021.081-.107.11-.257l.443-2.23Z" transform="translate(-422.077 -309.343)" fill="#432918"/><path d="M486.731,317.283l.511-1.95c.037-.139.042-.228.016-.27a.405.405,0,0,0-.228-.113l-.178-.047.134-.5,2.458.647a1.788,1.788,0,0,1,.915.477.78.78,0,0,1,.144.752.724.724,0,0,1-.33.456,1.082,1.082,0,0,1-.632.134.707.707,0,0,1,.435.351,1.666,1.666,0,0,1-.086.849.719.719,0,0,0-.037.275.118.118,0,0,0,.089.1.12.12,0,0,0,.131-.063.832.832,0,0,0,.107-.267c0-.013.008-.031.013-.06s.01-.05.013-.063l.362.094a.474.474,0,0,0-.016.073c-.005.034-.013.058-.016.073a1.1,1.1,0,0,1-.4.671.876.876,0,0,1-.721.05,1.074,1.074,0,0,1-.655-.388.856.856,0,0,1-.052-.7l.079-.3a.758.758,0,0,0,.026-.482.587.587,0,0,0-.37-.2l-.32-.084-.21.8c-.037.139-.042.228-.013.273a.4.4,0,0,0,.225.113l.2.052-.134.506-2.149-.566.134-.506.178.047a.391.391,0,0,0,.254.013A.461.461,0,0,0,486.731,317.283Zm1.509-.977.312.081a.8.8,0,0,0,.493.016.433.433,0,0,0,.225-.317.505.505,0,0,0-.024-.411.689.689,0,0,0-.406-.223l-.351-.092Z" transform="translate(-431.907 -311.682)" fill="#432918"/><path d="M503.372,324.174l.165-.5.157.052a.893.893,0,0,0,.252.06c.034,0,.058-.026.073-.068a.453.453,0,0,0,.018-.081c.005-.026.005-.052.008-.079v-.417l-.943-.312-.22.3c-.037.045-.06.081-.079.107a.288.288,0,0,0-.037.076c-.01.031,0,.06.039.092a.526.526,0,0,0,.173.086l.173.058-.165.5-1.567-.519.165-.5.131.045a.333.333,0,0,0,.252-.01.723.723,0,0,0,.249-.223l1.8-2.343,1.268.419-.052,2.909a.819.819,0,0,0,.05.367.377.377,0,0,0,.2.128l.183.06-.165.5Zm.671-1.585.031-1.166-.65.962Z" transform="translate(-443.249 -316.184)" fill="#432918"/></g></g></g></svg>